<svg width="89" height="89" viewBox="0 0 89 89" fill="none" xmlns="http://www.w3.org/2000/svg">
<rect width="89" height="89" fill="url(#paint0_linear_1_11)"/>
<path d="M5 62V28H16.0098C18.4461 28 20.5543 28.4192 22.3346 29.2575C24.115 30.0959 25.4892 31.2913 26.4575 32.8438C27.457 34.3963 27.9567 36.2283 27.9567 38.3397C27.9567 40.5443 27.4101 42.516 26.3169 44.2548C25.255 45.9936 23.8026 47.2511 21.9598 48.0274L28.4252 62H20.7886L15.2602 49.1452H11.9807V62H5ZM11.9807 43.0904H16.0098C17.5715 43.0904 18.774 42.7023 19.6173 41.926C20.4919 41.1498 20.9291 40.063 20.9291 38.6658C20.9291 37.2064 20.4919 36.0731 19.6173 35.2658C18.774 34.4584 17.5715 34.0548 16.0098 34.0548H11.9807V43.0904Z" fill="white"/>
<path d="M33.3262 62V28H55.3459V34.5205H40.26V42.0658H54.1278V48.5863H40.3537V62H33.3262Z" fill="white"/>
<path d="M61.0902 62V28H72.1937C74.5675 28 76.6289 28.4502 78.378 29.3507C80.1583 30.2511 81.5325 31.5242 82.5008 33.1699C83.5003 34.7845 84 36.6941 84 38.8986V51.0548C84 53.2283 83.5003 55.1379 82.5008 56.7836C81.5325 58.4292 80.1583 59.7178 78.378 60.6493C76.6289 61.5498 74.5675 62 72.1937 62H61.0902ZM68.1177 55.4795H72.1937C73.6304 55.4795 74.7861 55.0758 75.6606 54.2685C76.5352 53.4612 76.9724 52.39 76.9724 51.0548V38.8986C76.9724 37.5945 76.5352 36.5388 75.6606 35.7315C74.7861 34.9242 73.6304 34.5205 72.1937 34.5205H68.1177V55.4795Z" fill="white"/>
<defs>
<linearGradient id="paint0_linear_1_11" x1="0" y1="0" x2="89" y2="89" gradientUnits="userSpaceOnUse">
<stop stop-color="#20194A"/>
<stop offset="1" stop-color="#3C0436"/>
</linearGradient>
</defs>
</svg>
